<svg version="1.2" xmlns="http://www.w3.org/2000/svg" viewBox="0 0 191 50" width="191" height="50">
	<title>lemlist-svg</title>
	<style>
		.s0 { fill: #316bff } 
		.s1 { fill: #ffffff } 
		.s2 { fill: #213856 } 
	</style>
	<path fill-rule="evenodd" class="s0" d="m8.4 1.4h30.5c4.6 0 8.4 3.8 8.4 8.4v30.4c0 4.6-3.8 8.4-8.4 8.4h-30.5c-4.6 0-8.4-3.8-8.4-8.4v-30.4c0-4.6 3.8-8.4 8.4-8.4zm26.2 33.3v-1.7c0-0.7-0.5-1.3-1.2-1.3h-13.3c-1.8 0-3.2-1.4-3.2-3.2v-13.2c0-0.7-0.6-1.3-1.2-1.3h-1.8c-0.7 0-1.2 0.6-1.2 1.3v15.8c0.1 2.6 2.2 4.7 4.8 4.9h15.9c0.7 0 1.2-0.6 1.2-1.3zm-13.5-10.6v1.8c0 0.7 0.6 1.2 1.3 1.2h9c0.7 0 1.3-0.5 1.3-1.2v-1.8c0-0.7-0.6-1.2-1.3-1.2h-9c-0.7 0-1.3 0.5-1.3 1.2zm12.3-10.1h-11c-0.7 0-1.3 0.6-1.3 1.3v1.7c0 0.7 0.6 1.3 1.3 1.3h11c0.7 0 1.2-0.6 1.2-1.3v-1.7c0-0.7-0.5-1.3-1.2-1.3z"/>
	<path class="s1" d="m22.4 14h11c0.7 0 1.2 0.6 1.2 1.3v1.7c0 0.7-0.5 1.3-1.2 1.3h-11c-0.7 0-1.3-0.6-1.3-1.3v-1.7c0-0.7 0.6-1.3 1.3-1.3z"/>
	<path class="s1" d="m22.4 22.9h9c0.7 0 1.3 0.5 1.3 1.2v1.8c0 0.7-0.6 1.2-1.3 1.2h-9c-0.7 0-1.3-0.5-1.3-1.2v-1.8c0-0.7 0.6-1.2 1.3-1.2z"/>
	<path class="s1" d="m34.6 33v1.7c0 0.7-0.5 1.3-1.2 1.3h-15.9c-2.6-0.2-4.7-2.3-4.8-4.9v-15.8c0-0.7 0.5-1.3 1.2-1.3h1.8c0.6 0 1.2 0.6 1.2 1.3v13.2c0 1.8 1.4 3.2 3.2 3.2h13.3c0.7 0 1.2 0.6 1.2 1.3z"/>
	<path class="s2" d="m147.9 9.5h-2.3c-0.6 0-1.2 0.6-1.2 1.2v2.3c0 0.7 0.6 1.3 1.2 1.3h2.3c0.7 0 1.3-0.6 1.3-1.3v-2.3c0-0.6-0.6-1.2-1.3-1.2z"/>
	<path class="s2" d="m64.6 10.5v28.4c0 0.7-0.6 1.2-1.3 1.2h-2c-0.7 0-1.3-0.5-1.3-1.2v-28.4c0-0.7 0.6-1.3 1.3-1.3h2c0.7 0 1.3 0.6 1.3 1.3z"/>
	<path fill-rule="evenodd" class="s2" d="m73.5 30.9q0 0 0 0zm7.1 5.5c1.9 0 4.1-0.6 5.6-1.6 0.5-0.4 1.1-0.4 1.6 0.1l1.2 1.1c0.5 0.6 0.5 1.4-0.1 1.9-2.3 1.8-5.5 2.8-8.4 2.8-7.2 0-11.8-4.6-11.8-11.6 0-7 4.7-11.4 11.5-11.4 6.8 0 11.4 4 11.1 12 0 0.7-0.6 1.2-1.3 1.2h-16.5c0.4 3.3 3.1 5.5 7.1 5.5zm6.2-9.3c-0.2-3.5-2.8-5.3-6.5-5.3-3.3 0-6 1.8-6.7 5.3z"/>
	<path class="s2" d="m109.9 38.9v-11.5c0-2.8-2.3-5.2-5.2-5.2-3.2 0.1-5.2 2.7-5.2 5.9v10.8c0 0.7-0.5 1.2-1.2 1.2h-2.1c-0.7 0-1.2-0.5-1.2-1.2v-19.4c0-0.7 0.5-1.2 1.2-1.2h1.9c0.6 0 1.2 0.5 1.2 1.1l0.2 1.8c1.3-2.4 3.8-3.3 6.1-3.3 2.8 0 5.7 1.2 6.9 4.4 1.8-3.2 4.5-4.3 7.5-4.3 6 0 9.3 3.8 9.3 10.1v10.8c0 0.7-0.6 1.2-1.3 1.2h-2.1c-0.7 0-1.2-0.5-1.2-1.2v-11.7c0-2.7-2.2-4.9-4.9-4.9-3.2 0-5.3 2.6-5.3 5.8v10.8c0 0.7-0.5 1.2-1.2 1.2h-2.2c-0.6 0-1.2-0.5-1.2-1.2z"/>
	<path class="s2" d="m139 10.5v28.4c0 0.7-0.5 1.2-1.2 1.2h-2.1c-0.7 0-1.2-0.5-1.2-1.2v-28.4c0-0.7 0.5-1.3 1.2-1.3h2.1c0.7 0 1.2 0.6 1.2 1.3z"/>
	<path class="s2" d="m144.5 19.5v19.4c0 0.7 0.6 1.2 1.3 1.2h2c0.7 0 1.3-0.5 1.3-1.2v-19.4c0-0.7-0.6-1.3-1.3-1.3h-2c-0.7 0-1.3 0.6-1.3 1.3z"/>
	<path class="s2" d="m169.1 22.8c-0.4 0.5-1.1 0.5-1.6 0.2-1.5-1.1-3.1-1.4-4.9-1.4-2.8 0-4.7 0.9-4.7 2.6 0.1 1.9 2 2.6 4.8 2.8 4 0.4 9.3 1.3 9.2 6.9 0 4.1-3.6 6.9-9.3 6.9-3.2 0-6.4-0.7-9.2-3.2-0.4-0.5-0.5-1.2-0.1-1.7l0.9-1.2c0.4-0.6 1.2-0.7 1.8-0.3 2 1.6 4.5 2.3 6.7 2.4 2.2 0 4.6-0.8 4.7-2.9 0-1.9-1.8-2.7-5.1-3-4.1-0.4-8.8-1.7-8.9-6.5 0-4.8 5-6.7 9.1-6.7 2.9 0 5.2 0.6 7.4 2.1 0.6 0.4 0.7 1.3 0.2 1.8l-1 1.2z"/>
	<path class="s2" d="m182.7 13.4v5h5.1c0.7 0 1.2 0.5 1.2 1.2v1.5c0 0.6-0.5 1.2-1.2 1.2h-5.2v10.4c0 2.3 1 3.6 3.2 3.6 0.5 0 1.1-0.1 1.6-0.3 0.7-0.2 1.4 0.1 1.6 0.8l0.5 1.5c0.2 0.6-0.1 1.4-0.8 1.6-1 0.3-2.1 0.5-3.2 0.5-4.7 0.1-7.5-2.6-7.5-7.7v-10.4h-2.9c-0.7 0-1.3-0.6-1.3-1.2v-1.5c0-0.7 0.6-1.2 1.3-1.2h2.9v-4.8c0-0.6 0.5-1.1 1.2-1.2l2.1-0.2c0.7-0.1 1.4 0.5 1.4 1.2z"/>
</svg>