<svg version="1.2" xmlns="http://www.w3.org/2000/svg" viewBox="0 0 152 50" width="152" height="50">
	<title>phantom-buster-svg</title>
	<style>
		.s0 { fill: #3a3837 } 
		.s1 { fill: #ffffff } 
	</style>
	<path fill-rule="evenodd" class="s0" d="m25 50c-1.7 0-2.9-0.7-3.8-1.2-0.5-0.4-0.9-0.5-1.2-0.5-0.4 0-0.8 0.1-1.2 0.2-2.9 1-4.9-0.3-6.5-2.1-0.5-0.5-1-1-1.3-1.1-2.7-0.8-5.4-2.6-5.4-5.8v-5.8l-3.6-2.5c-0.9-0.5-1.5-1.3-1.8-2.2-0.6-1.7 0.1-3.7 1.5-4.8 1.2-1 2.4-1 3.9-0.9 0-3.9-0.1-8 1.6-11.6 2.9-7 10.2-11.7 17.8-11.7 7.6 0 15 4.7 17.9 11.7 1.7 3.6 1.6 7.7 1.5 11.6 1.5-0.1 2.8-0.1 4 0.9 1.5 1.1 2.1 3.1 1.5 4.8-0.3 0.9-0.9 1.7-1.8 2.2l-3.7 2.5v5.8c0 3.2-2.3 5.1-5.4 5.8-0.3 0.1-0.9 0.7-1.2 1.1-1.7 1.8-3.7 3.1-6.6 2.1-0.4-0.1-0.8-0.2-1.2-0.2-0.3 0-0.6 0.1-1.2 0.5-0.8 0.5-2 1.2-3.8 1.2z"/>
	<path fill-rule="evenodd" class="s1" d="m45.7 25h-3.1v-5.8c0-9.6-7.8-17.5-17.6-17.5-9.7 0-17.6 7.9-17.6 17.5v5.8h-3c-2.6 0-3.6 3.4-1.5 4.8l4.5 2.9v6.8c0 2.4 1.9 3.4 4.1 4.1 1.8 0.6 3 3.5 5.3 3.5 1.2 0 1.9-0.6 3.2-0.6 1.8 0 2.7 1.8 5 1.8 2.4 0 3.3-1.8 5-1.8 1.3 0 2.1 0.6 3.3 0.6 2.3 0 3.5-3.1 5.2-3.5 2.4-0.6 4.2-1.7 4.2-4.1v-6.7l4.5-3c2.1-1.4 1.1-4.8-1.5-4.8z"/>
	<path fill-rule="evenodd" class="s0" d="m20.6 17.4c-1.6 0-2.9-1.9-2.9-4.3 0-2.4 1.3-4.4 2.9-4.4 1.7 0 3 2 3 4.4 0 2.4-1.3 4.3-3 4.3zm8.9 0c-1.7 0-3-1.9-3-4.3 0-2.4 1.3-4.4 3-4.4 1.6 0 2.9 2 2.9 4.4 0 2.4-1.3 4.3-2.9 4.3z"/>
	<path fill-rule="evenodd" class="s0" d="m60.4 23.3c0 1.9-1.5 3.4-3.4 3.4h-2.1v3.7h-1.7v-10.4h3.8c1.9 0 3.4 1.5 3.4 3.3zm-1.7 0c0-0.9-0.8-1.7-1.7-1.7h-2.1v3.5h2.1c0.9 0 1.7-0.8 1.7-1.8zm9.2 2.3v4.8h-1.6v-4.7c0-1-0.6-1.4-1.4-1.4-0.8 0-1.5 0.5-1.5 1.8v4.3h-1.7v-10.4h1.7v3.8c0.4-0.7 1.1-1 2.1-1 1.3 0 2.4 1 2.4 2.8zm7.5 0v4.8h-1.5v-0.7q-0.7 0.9-2.2 0.9c-1.3 0-2.5-0.8-2.5-2.4 0-1.6 1.2-2.3 2.5-2.3 1 0 1.7 0.3 2.2 0.7v-0.9c0-1-0.6-1.4-1.4-1.4-0.8 0-1.4 0.4-1.4 1.1h-1.6c0-1.6 1.3-2.6 3-2.6 1.6 0 2.9 1 2.9 2.8zm-1.5 2.6c0-0.7-0.7-1.1-1.6-1.1-1 0-1.5 0.5-1.5 1.1 0 0.6 0.5 1.1 1.5 1.1 0.9 0 1.6-0.5 1.6-1.1zm9.4-2.6v4.8h-1.6v-4.7c0-1-0.6-1.4-1.4-1.4-0.8 0-1.6 0.5-1.6 1.8v4.3h-1.6v-7.4h1.6v0.8c0.5-0.7 1.2-1 2.1-1 1.4 0 2.5 1 2.5 2.8zm5.3-1.1h-1.3v5.9h-1.6v-5.9h-1.4v-1.5h1.4v-2.4h1.6v2.4h1.3zm0.6 2.1c0-2.2 1.8-3.9 3.9-3.9 2.2 0 4 1.7 4 3.9 0 2.2-1.8 3.9-4 3.9-2.1 0-3.9-1.7-3.9-3.9zm6.2 0c0-1.3-1-2.3-2.3-2.3-1.3 0-2.3 1-2.3 2.3 0 1.4 1 2.4 2.3 2.4 1.3 0 2.3-1 2.3-2.4zm12.8-1.3v5h-1.6v-4.9c0-0.9-0.5-1.2-1.1-1.2-0.6 0-1.3 0.4-1.3 1.6v4.5h-1.6v-4.9c0-0.9-0.6-1.2-1.2-1.2-0.5 0-1.3 0.4-1.3 1.6v4.5h-1.6v-7.4h1.6v0.8c0.5-0.7 1.1-1 1.9-1 0.7 0 1.4 0.4 1.8 1.1 0.5-0.8 1.3-1.1 2.1-1.1 1.4 0 2.3 0.9 2.3 2.6zm10.5 1.7c0 1.9-1.4 3.3-3.3 3.3h-5.4v-10.4h4.3c1.7 0 2.9 1.2 2.9 2.8q0 0.7-0.3 1.2c1.1 0.6 1.8 1.7 1.8 3.1zm-7-5.4v2h3.5c0.2-0.2 0.3-0.6 0.3-0.9 0-0.6-0.4-1.1-1.2-1.1zm5.3 5.3c0-1-0.7-1.8-1.8-1.8h-3.5v3.6h3.5c1.1 0 1.8-0.8 1.8-1.8zm9-4v7.4h-1.6v-0.8c-0.4 0.7-1.2 1-2.1 1-1.4 0-2.4-1-2.4-2.8v-4.8h1.6v4.7c0 1 0.6 1.4 1.3 1.4 0.9 0 1.6-0.5 1.6-1.8v-4.3zm7.4 5.3c0 1.5-1.3 2.3-2.9 2.3-1.7 0-2.9-0.8-2.9-2.5h1.5c0 0.8 0.6 1.1 1.4 1.1 0.8 0 1.3-0.3 1.3-0.9 0-1.4-4.1-0.4-4.1-3.2 0-1.4 1.3-2.3 2.8-2.3 1.5 0 2.7 0.9 2.7 2.5h-1.5c0-0.7-0.6-1-1.2-1-0.7 0-1.2 0.2-1.2 0.8 0 1.5 4.1 0.4 4.1 3.2zm5.1-3.7h-1.4v5.8h-1.6v-5.8h-1.4v-1.6h1.4v-2.4h1.6v2.4h1.4zm4.5 4.7c0.8 0 1.5-0.4 1.7-0.9h1.7c-0.5 1.4-1.8 2.3-3.5 2.3-2.3 0-3.9-1.7-3.9-3.9 0-2.2 1.6-3.9 3.9-3.9 2.2 0 3.7 1.8 3.7 3.9q0 0.3-0.1 0.7h-5.8c0.2 1.2 1.1 1.8 2.3 1.8zm2-3.2c-0.2-1.2-1.1-1.8-2.1-1.8-1.2 0-2 0.7-2.2 1.8zm6.7-3.2v1.8c-1-0.1-2.1 0.4-2.1 2v3.8h-1.6v-7.4h1.6v1.1c0.4-0.9 1.2-1.3 2.1-1.3z"/>
</svg>